<svg version="1.1" viewBox="0.0 0.0 256.0 256.0" fill="none" stroke="none" stroke-linecap="square" stroke-miterlimit="10" xmlns:xlink="http://www.w3.org/1999/xlink" xmlns="http://www.w3.org/2000/svg"><clipPath id="g28062e7d88a_0_52.0"><path d="m0 0l256.0 0l0 256.0l-256.0 0l0 -256.0z" clip-rule="nonzero"/></clipPath><g clip-path="url(#g28062e7d88a_0_52.0)"><path fill="#000000" fill-opacity="0.0" d="m0 0l256.0 0l0 256.0l-256.0 0z" fill-rule="evenodd"/><path fill="#3e8fa9" d="m13.354331 128.0l0 0c0 -63.317055 51.328613 -114.64567 114.64567 -114.64567l0 0c30.40593 0 59.566498 12.078706 81.06673 33.578938c21.500244 21.500233 33.57895 50.66081 33.57895 81.06673l0 0c0 63.317062 -51.328613 114.645676 -114.645676 114.645676l0 0c-63.317055 0 -114.64567 -51.328613 -114.64567 -114.645676z" fill-rule="evenodd"/><path stroke="#ffbe00" stroke-width="4.0" stroke-linejoin="round" stroke-linecap="butt" d="m13.354331 128.0l0 0c0 -63.317055 51.328613 -114.64567 114.64567 -114.64567l0 0c30.40593 0 59.566498 12.078706 81.06673 33.578938c21.500244 21.500233 33.57895 50.66081 33.57895 81.06673l0 0c0 63.317062 -51.328613 114.645676 -114.645676 114.645676l0 0c-63.317055 0 -114.64567 -51.328613 -114.64567 -114.645676z" fill-rule="evenodd"/><path fill="#000000" fill-opacity="0.0" d="m20.220432 128.00005l0 0c0 -59.524994 48.254536 -107.77953 107.779526 -107.77953l0 0c28.584908 0 55.999046 11.35531 76.21163 31.567894c20.212585 20.212578 31.567902 47.626724 31.567902 76.21164l0 0c0 59.52498 -48.254547 107.779526 -107.77953 107.779526l0 0c-59.524994 0 -107.779526 -48.254547 -107.779526 -107.779526z" fill-rule="evenodd"/><path stroke="#ffbe00" stroke-width="2.0" stroke-linejoin="round" stroke-linecap="butt" d="m20.220432 128.00005l0 0c0 -59.524994 48.254536 -107.77953 107.779526 -107.77953l0 0c28.584908 0 55.999046 11.35531 76.21163 31.567894c20.212585 20.212578 31.567902 47.626724 31.567902 76.21164l0 0c0 59.52498 -48.254547 107.779526 -107.77953 107.779526l0 0c-59.524994 0 -107.779526 -48.254547 -107.779526 -107.779526z" fill-rule="evenodd"/><path fill="#000000" fill-opacity="0.0" d="m168.94951 75.492226l-106.900154 106.900154" fill-rule="evenodd"/><path stroke="#ffbe00" stroke-width="4.0" stroke-linejoin="round" stroke-linecap="butt" d="m168.94951 75.492226l-106.900154 106.900154" fill-rule="evenodd"/><path fill="#000000" fill-opacity="0.0" d="m180.26497 86.80768l-106.90016 106.90016" fill-rule="evenodd"/><path stroke="#ffbe00" stroke-width="4.0" stroke-linejoin="round" stroke-linecap="butt" d="m180.26497 86.80768l-106.90016 106.90016" fill-rule="evenodd"/><path fill="#000000" fill-opacity="0.0" d="m168.8326 75.8467l0 6.146759" fill-rule="evenodd"/><path stroke="#ffbe00" stroke-width="4.0" stroke-linejoin="round" stroke-linecap="butt" d="m168.8326 75.8467l0 6.146759" fill-rule="evenodd"/><path fill="#000000" fill-opacity="0.0" d="m174.6258 81.63991l-6.146759 0" fill-rule="evenodd"/><path stroke="#ffbe00" stroke-width="4.0" stroke-linejoin="round" stroke-linecap="butt" d="m174.6258 81.63991l-6.146759 0" fill-rule="evenodd"/><path fill="#000000" fill-opacity="0.0" d="m174.27318 81.287285l0 6.146759" fill-rule="evenodd"/><path stroke="#ffbe00" stroke-width="4.0" stroke-linejoin="round" stroke-linecap="butt" d="m174.27318 81.287285l0 6.146759" fill-rule="evenodd"/><path fill="#000000" fill-opacity="0.0" d="m180.0673 87.08143l-6.146759 0" fill-rule="evenodd"/><path stroke="#ffbe00" stroke-width="4.0" stroke-linejoin="round" stroke-linecap="butt" d="m180.0673 87.08143l-6.146759 0" fill-rule="evenodd"/><path fill="#000000" fill-opacity="0.0" d="m168.47812 75.96362l24.631577 -13.317978" fill-rule="evenodd"/><path stroke="#ffbe00" stroke-width="4.0" stroke-linejoin="round" stroke-linecap="butt" d="m168.47812 75.96362l24.631577 -13.317978" fill-rule="evenodd"/><path fill="#000000" fill-opacity="0.0" d="m193.11247 62.646572l-13.317978 24.63158" fill-rule="evenodd"/><path stroke="#ffbe00" stroke-width="4.0" stroke-linejoin="round" stroke-linecap="butt" d="m193.11247 62.646572l-13.317978 24.63158" fill-rule="evenodd"/><path fill="#000000" fill-opacity="0.0" d="m184.6245 67.5972l3.8974 3.8974075" fill-rule="evenodd"/><path stroke="#ffbe00" stroke-width="4.0" stroke-linejoin="round" stroke-linecap="butt" d="m184.6245 67.5972l3.8974 3.8974075" fill-rule="evenodd"/><path fill="#000000" fill-opacity="0.0" d="m62.412186 182.02956c-0.53017044 1.512558 -3.5936546 6.659607 -3.1810226 9.075378c0.41262817 2.4157715 3.2407188 5.006912 5.6567993 5.419235c2.4160767 0.412323 7.366394 -2.4544373 8.839676 -2.9453125" fill-rule="evenodd"/><path stroke="#ffbe00" stroke-width="4.0" stroke-linejoin="round" stroke-linecap="butt" d="m62.412186 182.02956c-0.53017044 1.512558 -3.5936546 6.659607 -3.1810226 9.075378c0.41262817 2.4157715 3.2407188 5.006912 5.6567993 5.419235c2.4160767 0.412323 7.366394 -2.4544373 8.839676 -2.9453125" fill-rule="evenodd"/><path fill="#000000" fill-opacity="0.0" d="m66.53879 178.61191l11.202248 11.20224" fill-rule="evenodd"/><path stroke="#ffbe00" stroke-width="4.0" stroke-linejoin="round" stroke-linecap="butt" d="m66.53879 178.61191l11.202248 11.20224" fill-rule="evenodd"/><path fill="#000000" fill-opacity="0.0" d="m71.84111 172.83818l11.313599 11.313599" fill-rule="evenodd"/><path stroke="#ffbe00" stroke-width="4.0" stroke-linejoin="round" stroke-linecap="butt" d="m71.84111 172.83818l11.313599 11.313599" fill-rule="evenodd"/><path fill="#000000" fill-opacity="0.0" d="m70.016754 174.54376l11.313606 11.313599" fill-rule="evenodd"/><path stroke="#ffbe00" stroke-width="4.0" stroke-linejoin="round" stroke-linecap="butt" d="m70.016754 174.54376l11.313606 11.313599" fill-rule="evenodd"/><path fill="#000000" fill-opacity="0.0" d="m73.4873 170.95444l11.313606 11.313599" fill-rule="evenodd"/><path stroke="#ffbe00" stroke-width="4.0" stroke-linejoin="round" stroke-linecap="butt" d="m73.4873 170.95444l11.313606 11.313599" fill-rule="evenodd"/><path fill="#000000" fill-opacity="0.0" d="m77.50348 166.93825l11.313599 11.313614" fill-rule="evenodd"/><path stroke="#ffbe00" stroke-width="4.0" stroke-linejoin="round" stroke-linecap="butt" d="m77.50348 166.93825l11.313599 11.313614" fill-rule="evenodd"/><path fill="#ffbe00" d="m66.40517 178.12566l11.0482025 11.400818l-3.58004 3.5800476l-6.8482895 3.3146515l-4.9942436 -1.1042633l-2.4312363 -2.87294l0.044540405 -4.28714l2.4739227 -5.744034z" fill-rule="evenodd"/><path stroke="#ffbe00" stroke-width="4.0" stroke-linejoin="round" stroke-linecap="butt" d="m66.40517 178.12566l11.0482025 11.400818l-3.58004 3.5800476l-6.8482895 3.3146515l-4.9942436 -1.1042633l-2.4312363 -2.87294l0.044540405 -4.28714l2.4739227 -5.744034z" fill-rule="evenodd"/><path fill="#ffbe00" d="m184.53557 67.32979l9.982605 -6.1003532l-5.731827 10.00108z" fill-rule="evenodd"/><path stroke="#ffbe00" stroke-width="4.0" stroke-linejoin="round" stroke-linecap="butt" d="m184.53557 67.32979l9.982605 -6.1003532l-5.731827 10.00108z" fill-rule="evenodd"/><path fill="#3e8fa9" d="m183.85852 205.77988l-133.76068 -133.52312l22.1558 -22.1558l133.6419 133.6419l-19.563095 19.563095z" fill-rule="evenodd"/><path stroke="#ffbe00" stroke-width="4.0" stroke-linejoin="round" stroke-linecap="butt" d="m183.85852 205.77988l-133.76068 -133.52312l22.1558 -22.1558l133.6419 133.6419l-19.563095 19.563095z" fill-rule="evenodd"/><path fill="#000000" fill-opacity="0.0" d="m116.91693 139.07585l10.845917 -10.845917" fill-rule="evenodd"/><path stroke="#ffbe00" stroke-width="4.0" stroke-linejoin="round" stroke-linecap="butt" d="m116.91693 139.07585l10.845917 -10.845917" fill-rule="evenodd"/><path fill="#000000" fill-opacity="0.0" d="m83.67396 105.83287l10.845909 -10.845909" fill-rule="evenodd"/><path stroke="#ffbe00" stroke-width="4.0" stroke-linejoin="round" stroke-linecap="butt" d="m83.67396 105.83287l10.845909 -10.845909" fill-rule="evenodd"/><path fill="#000000" fill-opacity="0.0" d="m148.49702 170.65594l10.845917 -10.845917" fill-rule="evenodd"/><path stroke="#ffbe00" stroke-width="4.0" stroke-linejoin="round" stroke-linecap="butt" d="m148.49702 170.65594l10.845917 -10.845917" fill-rule="evenodd"/><path fill="#000000" fill-opacity="0.0" d="m105.82976 127.98868l6.01313 -6.013138" fill-rule="evenodd"/><path stroke="#ffbe00" stroke-width="4.0" stroke-linejoin="round" stroke-linecap="butt" d="m105.82976 127.98868l6.01313 -6.013138" fill-rule="evenodd"/><path fill="#000000" fill-opacity="0.0" d="m95.93035 118.08927l6.013138 -6.01313" fill-rule="evenodd"/><path stroke="#ffbe00" stroke-width="4.0" stroke-linejoin="round" stroke-linecap="butt" d="m95.93035 118.08927l6.013138 -6.01313" fill-rule="evenodd"/><path fill="#000000" fill-opacity="0.0" d="m71.83606 93.99498l6.013138 -6.01313" fill-rule="evenodd"/><path stroke="#ffbe00" stroke-width="4.0" stroke-linejoin="round" stroke-linecap="butt" d="m71.83606 93.99498l6.013138 -6.01313" fill-rule="evenodd"/><path fill="#000000" fill-opacity="0.0" d="m61.93666 84.09558l6.013138 -6.01313" fill-rule="evenodd"/><path stroke="#ffbe00" stroke-width="4.0" stroke-linejoin="round" stroke-linecap="butt" d="m61.93666 84.09558l6.013138 -6.01313" fill-rule="evenodd"/><path fill="#000000" fill-opacity="0.0" d="m137.65575 159.81467l6.013138 -6.013138" fill-rule="evenodd"/><path stroke="#ffbe00" stroke-width="4.0" stroke-linejoin="round" stroke-linecap="butt" d="m137.65575 159.81467l6.013138 -6.013138" fill-rule="evenodd"/><path fill="#000000" fill-opacity="0.0" d="m127.75635 149.91527l6.013138 -6.013138" fill-rule="evenodd"/><path stroke="#ffbe00" stroke-width="4.0" stroke-linejoin="round" stroke-linecap="butt" d="m127.75635 149.91527l6.013138 -6.013138" fill-rule="evenodd"/><path fill="#000000" fill-opacity="0.0" d="m169.48268 191.64159l6.0131226 -6.0131226" fill-rule="evenodd"/><path stroke="#ffbe00" stroke-width="4.0" stroke-linejoin="round" stroke-linecap="butt" d="m169.48268 191.64159l6.0131226 -6.0131226" fill-rule="evenodd"/><path fill="#000000" fill-opacity="0.0" d="m159.58327 181.74219l6.013138 -6.0131226" fill-rule="evenodd"/><path stroke="#ffbe00" stroke-width="4.0" stroke-linejoin="round" stroke-linecap="butt" d="m159.58327 181.74219l6.013138 -6.0131226" fill-rule="evenodd"/></g></svg>